<svg width="206" height="231" viewBox="0 0 206 231" fill="none" xmlns="http://www.w3.org/2000/svg">
<path d="M143.143 84C143.143 96.1503 133.293 106 121.143 106C109.992 106 100.143 96.1503 100.143 84C100.143 71.8497 109.992 62 121.143 62C133.293 62 143.143 71.8497 143.143 84Z" fill="#FFC131"/>
<ellipse cx="84.1426" cy="147" rx="22" ry="22" transform="rotate(-180 84.1426 147)" fill="#24C8DB"/>
<path fill-rule="evenodd" clip-rule="evenodd" d="M166.738 154.548C157.86 122.243 142.207 95.0665 122.956 75.8152C113.084 65.9436 113.084 50.056 122.956 40.1844C132.828 30.3128 148.716 30.3128 158.588 40.1844C168.46 50.056 168.46 65.9436 158.588 75.8152C139.337 95.0665 123.684 122.243 114.806 154.548C113.536 158.985 113.536 163.715 114.806 168.152C123.684 200.457 139.337 227.633 158.588 246.885C168.46 256.756 168.46 272.644 158.588 282.515C148.716 292.387 132.828 292.387 122.956 282.515C113.084 272.644 113.084 256.756 122.956 246.885C142.207 227.633 157.86 200.457 166.738 168.152C168.008 163.715 168.008 158.985 166.738 154.548Z" fill="#FFC131"/>
<path fill-rule="evenodd" clip-rule="evenodd" d="M39.2619 154.548C48.1398 122.243 63.7925 95.0665 83.0441 75.8152C92.9157 65.9436 92.9157 50.056 83.0441 40.1844C73.1725 30.3128 57.2849 30.3128 47.4133 40.1844C37.5417 50.056 37.5417 65.9436 47.4133 75.8152C66.6649 95.0665 82.3176 122.243 91.1955 154.548C92.4653 158.985 92.4653 163.715 91.1955 168.152C82.3176 200.457 66.6649 227.633 47.4133 246.885C37.5417 256.756 37.5417 272.644 47.4133 282.515C57.2849 292.387 73.1725 292.387 83.0441 282.515C92.9157 272.644 92.9157 256.756 83.0441 246.885C63.7925 227.633 48.1398 200.457 39.2619 168.152C37.9921 163.715 37.9921 158.985 39.2619 154.548Z" fill="#24C8DB"/>
</svg>